<svg class="svg-icon" style="width: 1em; height: 1em;vertical-align: middle;fill: currentColor;overflow: hidden;" viewBox="0 0 1024 1024" version="1.1" xmlns="http://www.w3.org/2000/svg"><path d="M682.666667 733.866667c4.266667-4.266667 12.8-8.533333 21.333333-8.533334 42.666667 0 55.466667 46.933333 102.4 12.8-4.266667-25.6-25.6-76.8-64-145.066666-34.133333 64-55.466667 115.2-59.733333 140.8z m-332.8-123.733334l264.533333-264.533333c8.533333-8.533333 21.333333-8.533333 29.866667 0s8.533333 21.333333 0 29.866667L379.733333 640c4.266667 8.533333 4.266667 17.066667 4.266667 25.6 0 34.133333-29.866667 64-64 64S256 699.733333 256 665.6s29.866667-64 64-64c12.8 0 21.333333 4.266667 29.866667 8.533333z m-12.8-46.933333h-17.066667c-59.733333 0-106.666667 46.933333-106.666667 102.4C213.333333 725.333333 260.266667 768 320 768s106.666667-42.666667 106.666667-102.4v-8.533333l337.066666-337.066667c25.6-25.6 25.6-64 0-89.6-25.6-25.6-64-25.6-89.6 0l-337.066666 332.8z m-17.066667-42.666667L640 200.533333c42.666667-42.666667 110.933333-42.666667 149.333333 0s42.666667 110.933333 0 149.333334L469.333333 669.866667c-4.266667 81.066667-68.266667 140.8-149.333333 140.8S170.666667 746.666667 170.666667 665.6s68.266667-145.066667 149.333333-145.066667z m426.666667 332.8c-59.733333 0-106.666667-46.933333-106.666667-106.666666 0-38.4 34.133333-115.2 106.666667-226.133334 72.533333 110.933333 106.666667 187.733333 106.666666 226.133334 0 59.733333-46.933333 106.666667-106.666666 106.666666z" fill="#444444" /></svg>