<svg class="svg-icon" style="width:1em;height:1em;vertical-align:middle;fill:currentColor;overflow:hidden" viewBox="0 0 1024 1024" xmlns="http://www.w3.org/2000/svg"><path d="M0 502.519a344.615 331.852 0 1 0 689.23 0 344.615 331.852 0 1 0-689.23 0z" fill="#e9eaeb" style="stroke-width:1.49649"/><path d="M640 417.185h-68.923V379.26h49.23l80.74-113.778h145.722v37.926H720.74Zm-147.692 56.89h354.461V512H492.308Z" fill="#2a5082" style="stroke-width:1.49649"/><path d="M787.692 284.444a59.077 56.889 0 1 0 118.154 0 59.077 56.889 0 1 0-118.154 0z" fill="#a3d4ff" style="stroke-width:1.49649"/><path d="M846.77 360.296c-43.324 0-78.77-34.133-78.77-75.852 0-41.718 35.446-75.851 78.77-75.851 43.322 0 78.768 34.133 78.768 75.851 0 41.719-35.446 75.852-78.769 75.852zm0-113.777c-21.662 0-39.385 17.066-39.385 37.925 0 20.86 17.723 37.926 39.384 37.926 21.662 0 39.385-17.066 39.385-37.926 0-20.859-17.723-37.925-39.385-37.925zm0 474.074H701.045l-78.77-113.778H492.309v-37.926h151.63l76.8 113.778H846.77z" fill="#2a5082" style="stroke-width:1.49649"/><path d="M787.692 701.63a59.077 56.889 0 1 0 118.154 0 59.077 56.889 0 1 0-118.154 0z" fill="#a3d4ff" style="stroke-width:1.49649"/><path d="M846.77 777.481c-43.324 0-78.77-34.133-78.77-75.851 0-41.719 35.446-75.852 78.77-75.852 43.322 0 78.768 34.133 78.768 75.852 0 41.718-35.446 75.851-78.769 75.851zm0-113.777c-21.662 0-39.385 17.066-39.385 37.926 0 20.859 17.723 37.926 39.384 37.926 21.662 0 39.385-17.067 39.385-37.926 0-20.86-17.723-37.926-39.385-37.926z" fill="#2a5082" style="stroke-width:1.49649"/><path d="M787.692 493.037a59.077 56.889 0 1 0 118.154 0 59.077 56.889 0 1 0-118.154 0z" fill="#a3d4ff" style="stroke-width:1.49649"/><path d="M846.77 568.889c-43.324 0-78.77-34.133-78.77-75.852 0-41.718 35.446-75.852 78.77-75.852 43.322 0 78.768 34.134 78.768 75.852 0 41.719-35.446 75.852-78.769 75.852zm0-113.778c-21.662 0-39.385 17.067-39.385 37.926 0 20.86 17.723 37.926 39.384 37.926 21.662 0 39.385-17.067 39.385-37.926 0-20.86-17.723-37.926-39.385-37.926zM649.845 883.674 523.816 701.63H374.153v-37.926h169.354l139.815 199.11z" fill="#2a5082" style="stroke-width:1.49649"/><path d="M610.461 872.296a59.077 56.889 0 1 0 118.154 0 59.077 56.889 0 1 0-118.153 0z" fill="#a3d4ff" style="stroke-width:1.49649"/><path d="M669.538 948.148c-43.323 0-78.769-34.133-78.769-75.852 0-41.718 35.446-75.852 78.77-75.852 43.322 0 78.769 34.134 78.769 75.852 0 41.719-35.447 75.852-78.77 75.852zm0-113.778c-21.661 0-39.384 17.067-39.384 37.926 0 20.86 17.723 37.926 39.384 37.926 21.662 0 39.385-17.066 39.385-37.926 0-20.859-17.723-37.926-39.385-37.926zm-126.03-512H393.846v-37.926h129.97l128-144.118 29.538 24.652z" fill="#2a5082" style="stroke-width:1.49649"/><path d="M610.461 151.704a59.077 56.889 0 1 0 118.154 0 59.077 56.889 0 1 0-118.153 0z" fill="#a3d4ff" style="stroke-width:1.49649"/><path d="M669.538 227.556c-43.323 0-78.769-34.134-78.769-75.852 0-41.719 35.446-75.852 78.77-75.852 43.322 0 78.769 34.133 78.769 75.852 0 41.718-35.447 75.852-78.77 75.852zm0-113.778c-21.661 0-39.384 17.066-39.384 37.926 0 20.859 17.723 37.926 39.384 37.926 21.662 0 39.385-17.067 39.385-37.926 0-20.86-17.723-37.926-39.385-37.926zM374.154 474.074h118.154V512H374.154ZM157.538 568.89h334.77v37.926h-334.77zm59.077-94.815H256V512h-39.385zm78.77 0h39.384V512h-39.384Zm19.692-189.63h39.385v37.926h-39.385Zm-19.692 379.26h39.384v37.926h-39.384Zm-78.77 0H256v37.926h-39.385Zm275.693-284.445h39.384v37.926h-39.384zm531.692 0h-39.385V94.815c0-32.237-25.6-56.89-59.077-56.89H768V0h157.538C980.677 0 1024 41.719 1024 94.815Zm-39.385 56.89H1024v37.925h-39.385zm0 75.851H1024v37.926h-39.385ZM137.846 644.74h39.385v132.741h-39.385zm0 170.667h39.385v37.926h-39.385ZM413.538 1024h-177.23c-55.139 0-98.462-41.719-98.462-94.815V891.26h39.385v37.926c0 32.237 25.6 56.89 59.077 56.89h177.23zm512 0H610.461v-37.926h315.077c33.477 0 59.077-24.652 59.077-56.889V587.852H1024v341.333c0 53.096-43.323 94.815-98.462 94.815Z" fill="#2a5082" style="stroke-width:1.49649"/><path d="M177.23 530.963h-39.384v-56.889c0-53.096 43.323-94.815 98.462-94.815h216.615v37.926H236.308c-33.477 0-59.077 24.652-59.077 56.89zm-39.384 37.926h39.385v37.926h-39.385zm315.077 417.185h39.385V1024h-39.385zm78.77 0h39.384V1024h-39.385Zm-256-663.704h-39.385c-55.139 0-98.462-41.718-98.462-94.814V94.815C137.846 41.719 181.17 0 236.308 0h334.769v37.926h-334.77c-33.476 0-59.076 24.652-59.076 56.889v132.74c0 32.238 25.6 56.89 59.077 56.89h39.384zM610.461 0h39.384v37.926h-39.385Zm78.769 0h39.384v37.926h-39.384z" fill="#2a5082" style="stroke-width:1.49649"/></svg>